<?xml version="1.0" encoding="utf-8"?>
<!-- Generator: Adobe Illustrator 25.4.1, SVG Export Plug-In . SVG Version: 6.00 Build 0)  -->
<svg version="1.1" id="Calque_1" xmlns="http://www.w3.org/2000/svg" xmlns:xlink="http://www.w3.org/1999/xlink" x="0px" y="0px"
	 viewBox="0 0 429.1 364.9" style="enable-background:new 0 0 429.1 364.9;" xml:space="preserve">
<path d="M305,5.6v12c0.1,2.3,0.5,4,1,6c2.5,8.7,6.6,16.8,12,24c2,2.3,5.7,4,7,7c4,3.4,9.6,6.8,14,9c1.7,0.6,5.7,1.1,7,2
	c1.9,1.3,2.9,2.3,0,4v1c-0.6,1.8-1.9,3.5-3,5c-2,2.7-4.3,5-7,7c-4.3,3.2-9.5,6.8-15,7h-1c-1.3,1.1-3,1.7-5,2h-4
	c-5.2,0.7-12.9,2.2-18,0h-6c-1.6,0-3-0.8-4-1h-3c-2.1-0.3-4.1-1-6-2h-1c-2.5-0.1-4-1.2-6-2l-4-1c-8.4-2-20.3-6.6-27-12h-1
	c-4.6-1-9.5-4.3-13.7-6.3s-10.5-3-13.3-6.7h-1c-4-1-8.9-3.5-12-6h-1c-6.8-1.6-13.6-6-20-9c-6.5-2.8-14.6-5.7-20-10h-1
	c-7-1.2-15.4-4-22-6H34c-5.3,4.3-13.7,4.3-18.7,10.3S5.8,50.6,3,57.6c-0.4,1.5-0.8,2.3-1,4c-0.2,1.6-0.8,4-1,5v51
	c0.2,1.2,0.8,3.2,1,5c0.2,2,0.5,3.2,1,5c1.7,4.2,3.7,8.2,6,12c0.8,0.7,1.4,2.2,2,3c1.8,2,4.9,3.4,6,6c9.5,8.3,23.5,10.3,33,18h1
	c5.1,1.2,12,4.8,16,8h1c4,1,8.9,3.5,12,6h1c3.1,0.8,5.7,2.1,8,4h1c2,0.1,2.6,1.3,4,2c1.6,0.8,2.7,0.7,4,2h1c1.7,0.2,3,0.9,4,2h1
	c3,0.7,6.7,2,9,4h1c4.7,0.8,13.4,3.1,17,6h1c2.5,0.1,4,1.3,6,2c1.8,0.4,3,0.8,5,1c2,0.3,3.7,0.6,5,1c1.6-0.2,2,0,3,1h1
	c1.7-0.3,3,0,4,1h1c1.7-0.3,3,0,4,1h1c2.2-0.2,4.5-0.3,6,1h1c2.7-0.3,5,0.1,7,1h45c1.2-0.2,3.1-1,5-1h6c1.5-0.6,2.9-1.3,5-1h1
	c1-0.9,2.3-1.3,4-1h1c1-0.9,2.3-1.3,4-1h1c2.4-1.3,5-1.6,8-2l5-1c2-0.7,3.6-1.6,6-2c4-0.7,7.2-1.7,11-3c2.3-1,4.2-2.5,7-3h1
	c1-1.1,2.3-1.8,4-2h1c1.9-1.5,3.9-2,6-3c1.9-1.1,3.9-2.1,6-3c3.8-1.4,7.4-3.1,11-5c4.4-2.8,8.9-6,14-8c0,0,0.6,0.2,1,0
	c1.8-2.8,7-4.8,10-6c0,0,0.6,0.2,1,0c1.5-2.4,5.3-4,8-5c0,0,0.6,0.2,1,0c1.5-2.4,5.3-4,8-5c0,0,0.6,0.2,1,0c1.3-2,3.8-3.1,6-4
	c0,0,0.6,0.2,1,0c2-3,7.7-5.6,11-7l5-2c6.3-3.8,11.8-9.6,18-14v-1c0-1.9-0.4-4.2,0-6c-1-4.5-3.9-5.5-7-8h-1c-1.2,0-2.8-0.2-4,0
	c-8.9,1.7-16.5,11.3-25.2,14.8c-8.8,3.4-16.9,10.7-25.8,14.2h-1c-10.9,10.6-29.2,16-42.7,23.3s-33.6,16.3-49.3,16.7h-1
	c-1,0.9-2.3,1.3-4,1h-1c-1,0.9-2.3,1.3-4,1h-1c-1.5,1.3-3.9,1.2-6,1h-1c-1.7,1.3-4.6,1.2-7,1c-1,0.2-2.4,1-4,1h-5
	c-6.6,0-13.4,0.4-20,0c-1.9-0.1-2.7,0.3-4-1h-8c-2.8-0.2-5.7-1.3-8-2h-2c-3.8,0.3-7.1-0.4-10-2h-1c-3,0-5.7-0.7-8-2h-1
	c-2.2,0-4.3-0.7-6-2h-1c-5.9-0.2-12-3.8-17-6l-4-1c-1.7-0.5-2.8-0.7-4-2h-1c-1.7-0.1-3-0.8-4-2h-1c-2.3-0.6-4.3-1.6-6-3h-1
	c-3.5-0.8-7.3-2.9-10-5h-1c-1.7,0-2.2-0.7-3-2h-1c-11.6-2.7-23.2-11.5-34.2-15.8c-11-4.2-25.9-9.2-29.8-21.2h4c16.2,0,32.8-1,49,0
	c1.7,0.1,3,0.8,4,1c2.1,0.4,3.4-0.5,5,1h1c3.6,0.1,8.4,1.8,11,4h1c6.5,1.3,12.7,4,18,8h1c3.1,0.8,5.7,2.1,8,4h1c4.2,1,8.3,3.4,12,5
	c2.3,0.8,4.6,1.5,7,2c5.7,1.3,13,2.3,18,5h1c3.7-0.2,7,1.1,10,2h9c1.6,0,3,0.8,4,1h32c2.2-1.6,6-1,9-1h1c7-2.6,14.5-4,22-4
	c2.5-1.2,5.2-1.8,8-2c1.7-1.4,3.7-1.6,6-2c4.1-0.7,8.1-1.7,12-3c2.3-1,4.2-2.5,7-3h1c1-1.1,2.3-1.8,4-2h1c1.9-1.5,3.6-2.2,6-3l3-1
	c4.1-2.3,8.4-5.2,13-7c0,0,0.6,0.2,1,0c1.5-2.4,6.3-5,9-6c0,0,0.6,0.2,1,0c5.3-8.1,17.6-12.5,24.8-20.2c7.1-7.8,12.2-18.8,19.2-25.8
	v-1c0.3-1.8,1-3.5,2-5c2.1-2.2,8.9-1,12-1c1.3,0.1,2.7,0.1,4,0c1-0.2,2.3-1.2,4-1h1c1.4-1,3.1-1.7,5-2h1c1.4-1.3,3.1-2.3,5-3
	c2.9-1.1,0.6,0.2,1,0c9-9.3,18-15.4,23-28c1.1-2.8,3.5-6.4,4-9c0.2-1,0.2-3,0-4c-1.5-6-12.3-2.4-15.7,2.3s-13.6,5.7-19.3,5.7h-7
	c-7.8,4.3-19.3,5.7-23,16c-3.2-11-11.4-19.8-22-24c-1.5-0.5-2.5-0.7-4-1c-2.1-0.5-3.6-0.2-5-2h-1c-4.8-1.2-9-4.1-12-8
	c-2-2.9-3.4-6.5-6-9h-1C309.1,1,306.9,2.6,305,5.6 M124,50.6h1c2.2-0.2,4.5-0.3,6,1h1c1.7-0.3,3,0,4,1h1c6.2,0.7,12.1,3.1,17,7h1
	c4.4,1,8.2,4.1,12,6c2.1,1,4.1,1.5,6,3h1c4,1,8.9,3.5,12,6h1c4,1,8.9,3.5,12,6h1c4,1,8.9,3.5,12,6h1c7.6,2,14.7,5.4,21,10h1
	c3.5,0.8,7.3,2.9,10,5h1c6.1,1.4,12.3,5,18,7c1.8,0.4,3,0.8,5,1c1.8,0.2,3.7,0.8,5,1c1.7-0.3,3,0,4,1h6c2.5,0,4,0.3,6,1h3
	c-0.5,1.4-1.5,2.1-3,2c-4.8,3.3-10.3,5.7-16,7l-10,3c-2,0.8-3.4,1.9-6,2h-1c-2.6,2.1-7.5,3-11,3h-1c-3.1,2.5-10.7,3.5-15,3h-1
	c-1.5,1.3-3.9,1.2-6,1c-1,0.2-2.4,1-4,1h-11c-3.8,0.4-8.3,0.4-12,0h-9c-2.3,0-4.3-0.7-6-1h-3c-1.8,0-2.9-0.7-4-1
	c-3.5-0.8-7-0.7-10-2h-1c-4.1-0.7-9.8-1.4-13-4h-1c-2.7-0.4-5-1.4-7-3h-1c-1.7-0.1-3-0.8-4-2h-1c-2.3-0.6-4.3-1.6-6-3h-1
	c-7.2-1.7-13.3-5.9-20.2-8.8c-7-2.8-16.2-4.3-22.8-7.2H75c-14,0-28.9,0.3-42-1c-2.3,0-4.8,0.3-7,0c-2.6-0.4-4.6-2.4-5-5
	c-1.8-4.8-0.4-10.4,0-15c0-4.3-0.4-8.7,0-13c0.2-3.2,2.2-7.3,4-10c1.3-2,3-3.7,5-5c2.1-2,5.4-2.3,8-3c15.6-3.9,36.3-1,53-1
	c5.2,0,12-0.5,17,0S120.2,47.8,124,50.6z"/>
<path d="M77,81.6v1c1.8,2.9,4.5,5.3,8,6c0.3-0.2,3.7-0.2,4,0c7-1.4,9.2-8.8,7-15v-1c-1.9-2-4.3-3.4-7-4c-0.3,0.2-3.7,0.2-4,0
	C78.5,69.9,76.4,75.4,77,81.6z"/>
<path d="M380,160.6h-1c-18.2,14.6-41.2,24.6-60,39c-19,14.2-42.7,29.3-66,34l-4,1c-2.4,1-4,2-7,2h-1c-2.3,1.3-5,2-8,2h-1
	c-1.3,1.2-3,1.1-5,1h-2c-1.7,0.7-3.7,1.1-6,1h-2c-3,1.2-6.5,1-10,1c-6.3,0.6-13.8,0.6-20,0c-3.4,0-8.4,0.9-11-1h-1
	c-2.2,0.2-4.5,0.3-6-1h-1c-2,0.2-3.7,0.2-5-1h-1c-7.6,0.5-16.5-3.4-23-6l-4-1c-12.8-3.4-25-8.7-36.2-15.8
	c-10.4-6.6-23.2-12.8-32.5-20.5c-9.2-7.7-23.8-12.8-30.3-22.7h-1c-2.3-1.4-4.5-2.7-6-5h-1c-4-2.5-8.5-5.2-12-8H7
	c-3.1,1.1-5.4,3.7-6,7c0.3,3.3,0,6.7,0,10v9c0.2,1.6,1,3.8,1,6v3c0.2,1,1.2,2.2,1,4v1c1.2,1.2,0.8,2.2,1,4c0.8,6.7,3,12.6,5,19
	c1.7,4.3,4.2,9.1,5,14v1c1.2,1,1.9,2.3,2,4v1c2.2,3.1,3.9,6.4,5,10c0.7,2,1,3,2,5c8,12.7,15.7,25.5,25.8,37.3
	c10,11.7,20.8,20.6,32.4,30.4c11.7,9.9,28.3,14,39.8,23.3h1c1.7,0.2,3,0.9,4,2h1c2.8,0.4,4.8,2,7,3l7,2c5.7,1.3,13,2.3,18,5h1
	c2.1-0.3,3.6,0.8,5,1h3c2.8,0.2,5.8,1,8,2h8c2.1,0,4.6,0.8,6,1h21c1.2-0.2,3.2-1,5-1h9c3.3-1,7-2.4,11-2h1c2.7-2.2,7.4-2.4,11-3
	c2.7-0.5,5.4-1.1,8-2c6.5-2.6,13.9-6.3,21-8h1c8.5-6.8,20.6-9.7,29.2-16.8c8.7-7,18.3-12.8,26.8-20.2c4.4-3.8,9-9,13-13
	c14.8-14.8,20.7-34.6,33-50v-1c0.6-2.3,1.6-4.3,3-6v-1c0.2-1.7,0.9-3,2-4v-1c0.5-3.3,2-8.6,4-11v-1c0-2.3,0.7-4.3,2-6v-1
	c1.1-6.7,2.4-15,5-21v-1c-0.2-2-0.2-3.7,1-5v-8c0-5.3-0.5-10.8,0-16c-0.8-2.3-2.2-4.4-4-6c-1-0.5-1.1-0.4-2-1h-6
	C383.6,159.6,381.9,160.3,380,160.6 M374,198.6c-2.1,13.4-21.2,20.3-31,30c-10,9.5-23.7,19-35,27c-11.5,8-25.1,19.7-39,23h-1
	c-3,2.1-6.4,3.5-10,4h-1c-3.6,2.3-7.7,3.7-12,4h-1c-2.3,1.3-5,2-8,2h-1c-1.1,1.1-2.3,1-4,1h-2c-1.2,0.4-2.2,1-4,1h-2
	c-1.8,0.7-3.6,1.3-6,1h-1c-1.2,1.2-2.3,1-4,1h-5c-5.7,0.6-12.3,0.8-18,0h-4c-1.9,0-2.7-0.6-4-1h-6c-1.9,0-2.7,0.3-4-1h-1
	c-1.7,0.3-3,0-4-1h-1c-8.1,0.5-16.8-3.6-24.2-5.8s-15.8-4.4-21.8-9.2h-1c-12.8-5-27.1-15.6-37.7-24.3S53.8,233.8,46,222.6
	c-0.3-0.2-1,0-1,0c-5.7-4.4-16.6-10-19-17c-0.9-2.6-1-5.4-2-8c-0.8-2.2-2.5-5-2-8c27.8,20.9,57.2,39.7,88,56h1c2.3,0.6,4.3,1.6,6,3
	h1c2.8,0.4,4.8,2,7,3c3.3,1.2,6.7,2.2,10,3l6,2c1.9,0.4,3.9,0.7,6,1c2,0.3,3.7,0.6,5,1c1.6-0.2,2,0,3,1h1c2-0.2,3.7-0.2,5,1h1
	c2.2-0.3,3.4,0.4,5,1h8c1.6,0,3,0.9,4,1h40c1.8-1.3,4.6-1.2,7-1h1c1.2-1.2,3.2-1.2,5-1h1c1.2-1.2,3.2-1.2,5-1h1c1.1-1.1,2.3-1,4-1h2
	c3.5-1.7,6.9-2.3,11-3l4-1c3.4-1.4,7.1-3,11-4c1.5-0.4,2.5-0.5,4-1c1.4-0.7,2-1.9,4-2h1c1.7-1.4,3.7-2.4,6-3h1c2.5-2,6-3.8,9-5l3-1
	c1.4-0.9,2-2.5,4-3h1c0.9-1.5,2.3-2.5,4-3h1c7.3-7.7,19-13.2,27.7-19.3c8.8-6.1,18.2-15,28.3-18.7c0.4-0.2,1,0,1,0
	c2.5-2.6,5.5-4.6,9-6C376.3,191.1,374.5,195.3,374,198.6 M354,253.6c-0.2,0.4,0,1,0,1c-3.4,9.6-12.7,19-19,27
	c-3.6,4.4-7.6,8.4-12,12c-8.4,7.5-17.3,14.2-26.7,20.3c-9.5,5.8-20,14.8-31.3,16.7h-1c-3,2.1-6.4,3.5-10,4h-1c-3.2,2.6-8.9,3.3-13,4
	h-1c-1,0.9-2.3,1.3-4,1h-1c-1,0.9-2.3,1.3-4,1h-1c-4.9,2.3-10.5,1-16,2c-1,0.2-2.5,1-4,1c-6.2,0.4-12.8,0.3-19,0c-1.8,0-3.8-0.8-5-1
	h-4c-1.6,0-3-0.9-4-1h-4c-3.9-0.3-8.8-1.3-12-3h-1c-3.3-0.5-7.5-1-10-3h-1c-3.6-0.1-8.4-1.8-11-4h-1c-3.9-0.6-8-2.6-11-5h-1
	c-16.1-3.8-32.2-18.9-45-29c-16-14.7-29.5-31.9-40-51c17.7,11.5,35,25.5,52,38h1c4,1.6,12.8,5.4,15,9h1c4.6,1,10.4,4.1,14,7h1
	c1.7,0.2,3,0.9,4,2h1c3.3,0.5,8.6,2,11,4h1c2.3,0,4.3,0.7,6,2h1c1.7-0.3,3,0,4,1h1c1.7-0.3,3,0,4,1h1c3.8-0.2,7.9,1,11,2h9
	c1.6,0,3,0.8,4,1h32c1.2-0.2,3.2-1,5-1h8c6.6-1.8,13.2-3.2,20-4l5-1c2-0.7,3.7-1.5,6-2l4-1c1.5-0.6,3-1.7,5-2h1c2-1.6,4.3-2.6,7-3h1
	c1.7-1.4,3.7-2.4,6-3h1c11.7-9.4,27.6-14.6,39-25c11.6-10.3,25-18.5,37-28C358.7,247.5,356.9,251.1,354,253.6z"/>
</svg>
